<svg width="1024.000000" height="1024.000000" viewBox="0 0 1024 1024" fill="none" xmlns="http://www.w3.org/2000/svg" xmlns:xlink="http://www.w3.org/1999/xlink">
	<desc>
			Created with Pixso.
	</desc>
	<defs>
		<clipPath id="clip7_11">
			<rect id="icon" width="1024.000000" height="1024.000000" fill="white"/>
		</clipPath>
	</defs>
	<g clip-path="url(#clip7_11)">
		<path id="vector" d="M562.8 515.6L513.439 495.68L458.72 531.84C458.72 531.84 473.04 544.4 473.04 562.16C473.04 579.92 462.8 701.84 472.8 782.08C481.68 853.12 506.08 904.24 527.2 932C548.319 959.76 590.479 989.76 602.72 989.76C614.96 989.76 643.84 966.48 653.76 934.24C663.76 902 596 912 596 912C596 912 544.479 883.68 531.6 787.68C521.68 714.08 525.279 631.2 526.08 600C527.279 553.36 562.8 515.6 562.8 515.6Z" fill-rule="nonzero" fill="#65A21B"/>
		<path id="vector" d="M805.938 166.052C816.675 200.312 811.036 245.796 784.639 284C730.239 362.8 636.079 420.32 606.079 435.84C576.079 451.36 569.439 458.8 574.959 472.16C580.479 485.52 600.639 470.96 618.239 457.76C688.159 405.6 767.039 355.6 826.959 353.36C886.879 351.12 921.359 371.12 934.639 386.64C934.667 386.664 934.771 386.775 934.799 386.8C959.199 407.92 974.719 447.84 971.438 482.32C966.678 532.458 945.914 551.785 934.96 561.982C930.638 566.006 927.842 568.608 928.159 571.12C928.44 573.351 930.261 575.369 932.812 578.198C940.419 586.629 954.518 602.259 953.679 652.16C952.88 699.905 914.335 753.58 857.282 773.417C839.429 784.309 770.342 792.278 720.319 766.32C664.799 737.44 603.759 659.76 577.119 616.4C550.479 573.12 531.519 528 504.959 526.48C485.613 525.365 464.623 545.148 435.828 572.285C406.755 599.685 369.726 634.583 318.399 663.04C245.75 703.29 183.489 718.262 148.989 708.023C108.711 703.025 58.5059 670.018 53.2002 604.48C48.2979 543.556 78.3662 509.828 98.0664 487.729C106.978 477.733 113.767 470.117 114.24 463.44C114.63 458.212 110.971 451.285 106.119 442.104C96.0479 423.042 80.8428 394.263 86.0801 350.8C95.3604 273.6 162.561 254.72 186.08 251.52C186.442 251.47 186.803 251.422 187.159 251.376C206.03 247.731 268.376 247.869 314.079 281.36C364.079 318 400.719 383.52 422.879 409.04C428.675 415.691 434.265 423.222 439.655 430.486C454.952 451.096 468.655 469.558 480.959 459.68C492.614 450.333 483.86 441.145 469.146 425.7C462.953 419.2 455.705 411.593 448.479 402.4C423.999 371.28 358.559 285.92 357.438 183.6C356.879 135.84 372.959 99.2001 391.199 76.48C391.654 75.9117 392.119 75.3585 392.593 74.8201C412.956 49.1976 442.833 29.4307 493.519 31.5201C566.158 34.48 591.278 98.16 606.079 100.4C607.656 100.641 611.367 98.6791 616.97 95.7174C635.523 85.9092 674.814 65.1382 725.999 77.1201C792.639 92.72 802.639 150.4 805.919 165.92C805.928 165.964 805.935 166.008 805.938 166.052Z" fill-rule="evenodd" fill="#8BC02B"/>
	</g>
</svg>
