<svg xmlns="http://www.w3.org/2000/svg" height="20" viewBox="0 -960 960 960" width="20"><path d="M310.077-310.077h143.924q9.934 0 17.005 7.014 7.071 7.015 7.071 16.865 0 9.851-7.071 16.966t-17.005 7.115H292.155q-12.55 0-21.294-8.744t-8.744-21.294v-161.846q0-9.934 6.918-17.005t16.769-7.071q9.85 0 17.062 7.071 7.211 7.071 7.211 17.005v143.924Zm340.038-340.038H505.999q-9.934 0-16.909-6.919-6.975-6.918-6.975-16.768 0-9.851 6.975-17.062 6.975-7.212 16.909-7.212h161.846q12.55 0 21.39 8.841 8.841 8.84 8.841 21.39v161.846q0 9.934-7.015 16.909-7.014 6.975-16.865 6.975-9.85 0-16.965-6.975-7.116-6.975-7.116-16.909v-144.116Z"/></svg>