<svg xmlns="http://www.w3.org/2000/svg" height="20" viewBox="0 -960 960 960" width="20"><path d="M378.27-345.233 238.923-206.77q-6.752 7.115-16.029 7.307-9.278.193-16.893-7.615-7.808-7.807-7.808-16.269 0-8.461 7.808-16.268l138.847-139.04h-74.27q-10 0-17.019-6.918-7.019-6.918-7.019-16.769 0-9.851 6.959-17.062t16.869-7.211h125.356q12.526 0 21.516 8.824 8.991 8.825 8.991 21.351v125.355q0 9.911-7.015 17.036-7.014 7.125-16.865 7.125-9.85 0-16.965-7.02-7.116-7.019-7.116-17.018v-74.271Zm236.882-237.074h74.27q10 0 17.115 7.015 7.115 7.014 7.115 16.865 0 9.85-7.055 16.965-7.055 7.116-16.965 7.116H564.276q-12.526 0-21.42-8.729-8.894-8.728-8.894-21.254v-125.355q0-9.911 6.918-17.132 6.918-7.221 16.769-7.221 9.85 0 17.062 7.115 7.211 7.115 7.211 17.115v74.271l138.847-138.155q6.752-7.116 16.183-7.462 9.432-.346 17.239 7.462 7.616 7.807 7.616 16.268 0 8.462-7.616 16.269L615.152-582.307Z"/></svg>